<svg xmlns="http://www.w3.org/2000/svg" viewBox="0 0 32 32" fill="none" role="img" aria-label="Dr Phil X">
  <rect width="32" height="32" rx="7" fill="#050505"/>
  <ellipse cx="16" cy="27.2" rx="6.8" ry="1.35" fill="#c41e3a" opacity="0.42"/>
  <path d="M8.6 13.1 16 17.7 16 26.1 8.6 21.5Z" fill="rgba(255,255,255,0.035)" stroke="rgba(255,255,255,0.28)" stroke-width="0.65" stroke-linejoin="round"/>
  <path d="M16 17.7 23.4 13.1 23.4 21.5 16 26.1Z" fill="rgba(255,255,255,0.055)" stroke="rgba(255,255,255,0.34)" stroke-width="0.65" stroke-linejoin="round"/>
  <path d="M16 9.7 23.4 13.1 16 17.7 8.6 13.1Z" fill="rgba(255,255,255,0.09)" stroke="rgba(255,255,255,0.4)" stroke-width="0.65" stroke-linejoin="round"/>
  <path d="M16 17.7V26.1" stroke="rgba(255,255,255,0.14)" stroke-width="0.45"/>
  <path d="M12.3 15.4h7.4" stroke="rgba(255,255,255,0.12)" stroke-width="0.4"/>
  <path d="M12.8 19.2h6.4" stroke="rgba(255,255,255,0.1)" stroke-width="0.35"/>
  <path d="M12.4 15.8 16.2 13.6 19.8 16.4 16 18.6Z" fill="#e11d48"/>
  <path d="M13.8 17.1 16.2 15.6 18.2 17.4 15.8 18.9Z" fill="#ff4d6d" opacity="0.85"/>
  <path d="M12.4 15.8 16.2 13.6 19.8 16.4 16 18.6Z" fill="#e11d48" filter="url(#glow)"/>
  <defs>
    <filter id="glow" x="-60%" y="-60%" width="220%" height="220%">
      <feGaussianBlur stdDeviation="1.15" result="blur"/>
      <feMerge>
        <feMergeNode in="blur"/>
        <feMergeNode in="SourceGraphic"/>
      </feMerge>
    </filter>
  </defs>
</svg>